<svg width="318" height="333" viewBox="0 0 318 333" fill="none" xmlns="http://www.w3.org/2000/svg">
<g opacity="0.2">
<path fill-rule="evenodd" clip-rule="evenodd" d="M315 1.75671C315 2.58514 315.672 3.25671 316.5 3.25671C317.328 3.25671 318 2.58514 318 1.75671V1.62061C318 0.792178 317.328 0.120605 316.5 0.120605C315.672 0.120605 315 0.792178 315 1.62061V1.75671Z" fill="#0B131B"/>
<path fill-rule="evenodd" clip-rule="evenodd" d="M315 29.9801C315 30.8085 315.672 31.4801 316.5 31.4801C317.328 31.4801 318 30.8085 318 29.9801V29.8442C318 29.0158 317.328 28.3442 316.5 28.3442C315.672 28.3442 315 29.0158 315 29.8442V29.9801Z" fill="#0B131B"/>
<path fill-rule="evenodd" clip-rule="evenodd" d="M315 56.1129C315 56.9413 315.672 57.6129 316.5 57.6129C317.328 57.6129 318 56.9413 318 56.1129V55.9771C318 55.1486 317.328 54.4771 316.5 54.4771C315.672 54.4771 315 55.1486 315 55.9771V56.1129Z" fill="#0B131B"/>
<path fill-rule="evenodd" clip-rule="evenodd" d="M315 84.3369C315 85.1653 315.672 85.8369 316.5 85.8369C317.328 85.8369 318 85.1653 318 84.3369V84.2012C318 83.3727 317.328 82.7012 316.5 82.7012C315.672 82.7012 315 83.3727 315 84.2012V84.3369Z" fill="#0B131B"/>
<path fill-rule="evenodd" clip-rule="evenodd" d="M315 111.515C315 112.343 315.672 113.015 316.5 113.015C317.328 113.015 318 112.343 318 111.515V111.379C318 110.55 317.328 109.879 316.5 109.879C315.672 109.879 315 110.55 315 111.379V111.515Z" fill="#0B131B"/>
<path fill-rule="evenodd" clip-rule="evenodd" d="M315 138.693C315 139.522 315.672 140.193 316.5 140.193C317.328 140.193 318 139.522 318 138.693V138.557C318 137.729 317.328 137.057 316.5 137.057C315.672 137.057 315 137.729 315 138.557V138.693Z" fill="#0B131B"/>
<path fill-rule="evenodd" clip-rule="evenodd" d="M315 165.871C315 166.7 315.672 167.371 316.5 167.371C317.328 167.371 318 166.7 318 165.871V165.735C318 164.907 317.328 164.235 316.5 164.235C315.672 164.235 315 164.907 315 165.735V165.871Z" fill="#0B131B"/>
<path fill-rule="evenodd" clip-rule="evenodd" d="M315 194.095C315 194.923 315.672 195.595 316.5 195.595C317.328 195.595 318 194.923 318 194.095V193.959C318 193.131 317.328 192.459 316.5 192.459C315.672 192.459 315 193.131 315 193.959V194.095Z" fill="#0B131B"/>
<path fill-rule="evenodd" clip-rule="evenodd" d="M315 221.273C315 222.101 315.672 222.773 316.5 222.773C317.328 222.773 318 222.101 318 221.273V221.137C318 220.309 317.328 219.637 316.5 219.637C315.672 219.637 315 220.309 315 221.137V221.273Z" fill="#0B131B"/>
<path fill-rule="evenodd" clip-rule="evenodd" d="M315 248.452C315 249.28 315.672 249.952 316.5 249.952C317.328 249.952 318 249.28 318 248.452V248.315C318 247.487 317.328 246.815 316.5 246.815C315.672 246.815 315 247.487 315 248.315V248.452Z" fill="#0B131B"/>
<path fill-rule="evenodd" clip-rule="evenodd" d="M315 276.675C315 277.503 315.672 278.175 316.5 278.175C317.328 278.175 318 277.503 318 276.675V276.539C318 275.711 317.328 275.039 316.5 275.039C315.672 275.039 315 275.711 315 276.539V276.675Z" fill="#0B131B"/>
<path fill-rule="evenodd" clip-rule="evenodd" d="M315 302.808C315 303.636 315.672 304.308 316.5 304.308C317.328 304.308 318 303.636 318 302.808V302.672C318 301.843 317.328 301.172 316.5 301.172C315.672 301.172 315 301.843 315 302.672V302.808Z" fill="#0B131B"/>
<path fill-rule="evenodd" clip-rule="evenodd" d="M315 331.032C315 331.86 315.672 332.532 316.5 332.532C317.328 332.532 318 331.86 318 331.032V330.896C318 330.067 317.328 329.396 316.5 329.396C315.672 329.396 315 330.067 315 330.896V331.032Z" fill="#0B131B"/>
<path fill-rule="evenodd" clip-rule="evenodd" d="M288 1.75671C288 2.58514 288.672 3.25671 289.5 3.25671C290.328 3.25671 291 2.58514 291 1.75671V1.62061C291 0.792178 290.328 0.120605 289.5 0.120605C288.672 0.120605 288 0.792178 288 1.62061V1.75671Z" fill="#0B131B"/>
<path fill-rule="evenodd" clip-rule="evenodd" d="M288 29.9801C288 30.8085 288.672 31.4801 289.5 31.4801C290.328 31.4801 291 30.8085 291 29.9801V29.8442C291 29.0158 290.328 28.3442 289.5 28.3442C288.672 28.3442 288 29.0158 288 29.8442V29.9801Z" fill="#0B131B"/>
<path fill-rule="evenodd" clip-rule="evenodd" d="M288 56.1129C288 56.9413 288.672 57.6129 289.5 57.6129C290.328 57.6129 291 56.9413 291 56.1129V55.9771C291 55.1486 290.328 54.4771 289.5 54.4771C288.672 54.4771 288 55.1486 288 55.9771V56.1129Z" fill="#0B131B"/>
<path fill-rule="evenodd" clip-rule="evenodd" d="M288 84.3369C288 85.1653 288.672 85.8369 289.5 85.8369C290.328 85.8369 291 85.1653 291 84.3369V84.2012C291 83.3727 290.328 82.7012 289.5 82.7012C288.672 82.7012 288 83.3727 288 84.2012V84.3369Z" fill="#0B131B"/>
<path fill-rule="evenodd" clip-rule="evenodd" d="M288 111.515C288 112.343 288.672 113.015 289.5 113.015C290.328 113.015 291 112.343 291 111.515V111.379C291 110.55 290.328 109.879 289.5 109.879C288.672 109.879 288 110.55 288 111.379V111.515Z" fill="#0B131B"/>
<path fill-rule="evenodd" clip-rule="evenodd" d="M288 138.693C288 139.522 288.672 140.193 289.5 140.193C290.328 140.193 291 139.522 291 138.693V138.557C291 137.729 290.328 137.057 289.5 137.057C288.672 137.057 288 137.729 288 138.557V138.693Z" fill="#0B131B"/>
<path fill-rule="evenodd" clip-rule="evenodd" d="M288 165.871C288 166.7 288.672 167.371 289.5 167.371C290.328 167.371 291 166.7 291 165.871V165.735C291 164.907 290.328 164.235 289.5 164.235C288.672 164.235 288 164.907 288 165.735V165.871Z" fill="#0B131B"/>
<path fill-rule="evenodd" clip-rule="evenodd" d="M288 194.095C288 194.923 288.672 195.595 289.5 195.595C290.328 195.595 291 194.923 291 194.095V193.959C291 193.131 290.328 192.459 289.5 192.459C288.672 192.459 288 193.131 288 193.959V194.095Z" fill="#0B131B"/>
<path fill-rule="evenodd" clip-rule="evenodd" d="M288 221.273C288 222.101 288.672 222.773 289.5 222.773C290.328 222.773 291 222.101 291 221.273V221.137C291 220.309 290.328 219.637 289.5 219.637C288.672 219.637 288 220.309 288 221.137V221.273Z" fill="#0B131B"/>
<path fill-rule="evenodd" clip-rule="evenodd" d="M288 248.452C288 249.28 288.672 249.952 289.5 249.952C290.328 249.952 291 249.28 291 248.452V248.315C291 247.487 290.328 246.815 289.5 246.815C288.672 246.815 288 247.487 288 248.315V248.452Z" fill="#0B131B"/>
<path fill-rule="evenodd" clip-rule="evenodd" d="M288 276.675C288 277.503 288.672 278.175 289.5 278.175C290.328 278.175 291 277.503 291 276.675V276.539C291 275.711 290.328 275.039 289.5 275.039C288.672 275.039 288 275.711 288 276.539V276.675Z" fill="#0B131B"/>
<path fill-rule="evenodd" clip-rule="evenodd" d="M288 302.808C288 303.636 288.672 304.308 289.5 304.308C290.328 304.308 291 303.636 291 302.808V302.672C291 301.843 290.328 301.172 289.5 301.172C288.672 301.172 288 301.843 288 302.672V302.808Z" fill="#0B131B"/>
<path fill-rule="evenodd" clip-rule="evenodd" d="M288 331.032C288 331.86 288.672 332.532 289.5 332.532C290.328 332.532 291 331.86 291 331.032V330.896C291 330.067 290.328 329.396 289.5 329.396C288.672 329.396 288 330.067 288 330.896V331.032Z" fill="#0B131B"/>
<path fill-rule="evenodd" clip-rule="evenodd" d="M263 1.75671C263 2.58514 263.672 3.25671 264.5 3.25671C265.328 3.25671 266 2.58514 266 1.75671V1.62061C266 0.792178 265.328 0.120605 264.5 0.120605C263.672 0.120605 263 0.792178 263 1.62061V1.75671Z" fill="#0B131B"/>
<path fill-rule="evenodd" clip-rule="evenodd" d="M263 29.9801C263 30.8085 263.672 31.4801 264.5 31.4801C265.328 31.4801 266 30.8085 266 29.9801V29.8442C266 29.0158 265.328 28.3442 264.5 28.3442C263.672 28.3442 263 29.0158 263 29.8442V29.9801Z" fill="#0B131B"/>
<path fill-rule="evenodd" clip-rule="evenodd" d="M263 56.1129C263 56.9413 263.672 57.6129 264.5 57.6129C265.328 57.6129 266 56.9413 266 56.1129V55.9771C266 55.1486 265.328 54.4771 264.5 54.4771C263.672 54.4771 263 55.1486 263 55.9771V56.1129Z" fill="#0B131B"/>
<path fill-rule="evenodd" clip-rule="evenodd" d="M263 84.3369C263 85.1653 263.672 85.8369 264.5 85.8369C265.328 85.8369 266 85.1653 266 84.3369V84.2012C266 83.3727 265.328 82.7012 264.5 82.7012C263.672 82.7012 263 83.3727 263 84.2012V84.3369Z" fill="#0B131B"/>
<path fill-rule="evenodd" clip-rule="evenodd" d="M263 111.515C263 112.343 263.672 113.015 264.5 113.015C265.328 113.015 266 112.343 266 111.515V111.379C266 110.55 265.328 109.879 264.5 109.879C263.672 109.879 263 110.55 263 111.379V111.515Z" fill="#0B131B"/>
<path fill-rule="evenodd" clip-rule="evenodd" d="M263 138.693C263 139.522 263.672 140.193 264.5 140.193C265.328 140.193 266 139.522 266 138.693V138.557C266 137.729 265.328 137.057 264.5 137.057C263.672 137.057 263 137.729 263 138.557V138.693Z" fill="#0B131B"/>
<path fill-rule="evenodd" clip-rule="evenodd" d="M263 165.871C263 166.7 263.672 167.371 264.5 167.371C265.328 167.371 266 166.7 266 165.871V165.735C266 164.907 265.328 164.235 264.5 164.235C263.672 164.235 263 164.907 263 165.735V165.871Z" fill="#0B131B"/>
<path fill-rule="evenodd" clip-rule="evenodd" d="M263 194.095C263 194.923 263.672 195.595 264.5 195.595C265.328 195.595 266 194.923 266 194.095V193.959C266 193.131 265.328 192.459 264.5 192.459C263.672 192.459 263 193.131 263 193.959V194.095Z" fill="#0B131B"/>
<path fill-rule="evenodd" clip-rule="evenodd" d="M263 221.273C263 222.101 263.672 222.773 264.5 222.773C265.328 222.773 266 222.101 266 221.273V221.137C266 220.309 265.328 219.637 264.5 219.637C263.672 219.637 263 220.309 263 221.137V221.273Z" fill="#0B131B"/>
<path fill-rule="evenodd" clip-rule="evenodd" d="M263 248.452C263 249.28 263.672 249.952 264.5 249.952C265.328 249.952 266 249.28 266 248.452V248.315C266 247.487 265.328 246.815 264.5 246.815C263.672 246.815 263 247.487 263 248.315V248.452Z" fill="#0B131B"/>
<path fill-rule="evenodd" clip-rule="evenodd" d="M263 276.675C263 277.503 263.672 278.175 264.5 278.175C265.328 278.175 266 277.503 266 276.675V276.539C266 275.711 265.328 275.039 264.5 275.039C263.672 275.039 263 275.711 263 276.539V276.675Z" fill="#0B131B"/>
<path fill-rule="evenodd" clip-rule="evenodd" d="M263 302.808C263 303.636 263.672 304.308 264.5 304.308C265.328 304.308 266 303.636 266 302.808V302.672C266 301.843 265.328 301.172 264.5 301.172C263.672 301.172 263 301.843 263 302.672V302.808Z" fill="#0B131B"/>
<path fill-rule="evenodd" clip-rule="evenodd" d="M263 331.032C263 331.86 263.672 332.532 264.5 332.532C265.328 332.532 266 331.86 266 331.032V330.896C266 330.067 265.328 329.396 264.5 329.396C263.672 329.396 263 330.067 263 330.896V331.032Z" fill="#0B131B"/>
<path fill-rule="evenodd" clip-rule="evenodd" d="M236 1.75671C236 2.58514 236.672 3.25671 237.5 3.25671C238.328 3.25671 239 2.58514 239 1.75671V1.62061C239 0.792178 238.328 0.120605 237.5 0.120605C236.672 0.120605 236 0.792178 236 1.62061V1.75671Z" fill="#0B131B"/>
<path fill-rule="evenodd" clip-rule="evenodd" d="M236 29.9801C236 30.8085 236.672 31.4801 237.5 31.4801C238.328 31.4801 239 30.8085 239 29.9801V29.8442C239 29.0158 238.328 28.3442 237.5 28.3442C236.672 28.3442 236 29.0158 236 29.8442V29.9801Z" fill="#0B131B"/>
<path fill-rule="evenodd" clip-rule="evenodd" d="M236 56.1129C236 56.9413 236.672 57.6129 237.5 57.6129C238.328 57.6129 239 56.9413 239 56.1129V55.9771C239 55.1486 238.328 54.4771 237.5 54.4771C236.672 54.4771 236 55.1486 236 55.9771V56.1129Z" fill="#0B131B"/>
<path fill-rule="evenodd" clip-rule="evenodd" d="M236 84.3369C236 85.1653 236.672 85.8369 237.5 85.8369C238.328 85.8369 239 85.1653 239 84.3369V84.2012C239 83.3727 238.328 82.7012 237.5 82.7012C236.672 82.7012 236 83.3727 236 84.2012V84.3369Z" fill="#0B131B"/>
<path fill-rule="evenodd" clip-rule="evenodd" d="M236 111.515C236 112.343 236.672 113.015 237.5 113.015C238.328 113.015 239 112.343 239 111.515V111.379C239 110.55 238.328 109.879 237.5 109.879C236.672 109.879 236 110.55 236 111.379V111.515Z" fill="#0B131B"/>
<path fill-rule="evenodd" clip-rule="evenodd" d="M236 138.693C236 139.522 236.672 140.193 237.5 140.193C238.328 140.193 239 139.522 239 138.693V138.557C239 137.729 238.328 137.057 237.5 137.057C236.672 137.057 236 137.729 236 138.557V138.693Z" fill="#0B131B"/>
<path fill-rule="evenodd" clip-rule="evenodd" d="M236 165.871C236 166.7 236.672 167.371 237.5 167.371C238.328 167.371 239 166.7 239 165.871V165.735C239 164.907 238.328 164.235 237.5 164.235C236.672 164.235 236 164.907 236 165.735V165.871Z" fill="#0B131B"/>
<path fill-rule="evenodd" clip-rule="evenodd" d="M236 194.095C236 194.923 236.672 195.595 237.5 195.595C238.328 195.595 239 194.923 239 194.095V193.959C239 193.131 238.328 192.459 237.5 192.459C236.672 192.459 236 193.131 236 193.959V194.095Z" fill="#0B131B"/>
<path fill-rule="evenodd" clip-rule="evenodd" d="M236 221.273C236 222.101 236.672 222.773 237.5 222.773C238.328 222.773 239 222.101 239 221.273V221.137C239 220.309 238.328 219.637 237.5 219.637C236.672 219.637 236 220.309 236 221.137V221.273Z" fill="#0B131B"/>
<path fill-rule="evenodd" clip-rule="evenodd" d="M236 248.452C236 249.28 236.672 249.952 237.5 249.952C238.328 249.952 239 249.28 239 248.452V248.315C239 247.487 238.328 246.815 237.5 246.815C236.672 246.815 236 247.487 236 248.315V248.452Z" fill="#0B131B"/>
<path fill-rule="evenodd" clip-rule="evenodd" d="M236 276.675C236 277.503 236.672 278.175 237.5 278.175C238.328 278.175 239 277.503 239 276.675V276.539C239 275.711 238.328 275.039 237.5 275.039C236.672 275.039 236 275.711 236 276.539V276.675Z" fill="#0B131B"/>
<path fill-rule="evenodd" clip-rule="evenodd" d="M236 302.808C236 303.636 236.672 304.308 237.5 304.308C238.328 304.308 239 303.636 239 302.808V302.672C239 301.843 238.328 301.172 237.5 301.172C236.672 301.172 236 301.843 236 302.672V302.808Z" fill="#0B131B"/>
<path fill-rule="evenodd" clip-rule="evenodd" d="M236 331.032C236 331.86 236.672 332.532 237.5 332.532C238.328 332.532 239 331.86 239 331.032V330.896C239 330.067 238.328 329.396 237.5 329.396C236.672 329.396 236 330.067 236 330.896V331.032Z" fill="#0B131B"/>
<path fill-rule="evenodd" clip-rule="evenodd" d="M210 1.75671C210 2.58514 210.672 3.25671 211.5 3.25671C212.328 3.25671 213 2.58514 213 1.75671V1.62061C213 0.792178 212.328 0.120605 211.5 0.120605C210.672 0.120605 210 0.792178 210 1.62061V1.75671Z" fill="#0B131B"/>
<path fill-rule="evenodd" clip-rule="evenodd" d="M210 29.9801C210 30.8085 210.672 31.4801 211.5 31.4801C212.328 31.4801 213 30.8085 213 29.9801V29.8442C213 29.0158 212.328 28.3442 211.5 28.3442C210.672 28.3442 210 29.0158 210 29.8442V29.9801Z" fill="#0B131B"/>
<path fill-rule="evenodd" clip-rule="evenodd" d="M210 56.1129C210 56.9413 210.672 57.6129 211.5 57.6129C212.328 57.6129 213 56.9413 213 56.1129V55.9771C213 55.1486 212.328 54.4771 211.5 54.4771C210.672 54.4771 210 55.1486 210 55.9771V56.1129Z" fill="#0B131B"/>
<path fill-rule="evenodd" clip-rule="evenodd" d="M210 84.3369C210 85.1653 210.672 85.8369 211.5 85.8369C212.328 85.8369 213 85.1653 213 84.3369V84.2012C213 83.3727 212.328 82.7012 211.5 82.7012C210.672 82.7012 210 83.3727 210 84.2012V84.3369Z" fill="#0B131B"/>
<path fill-rule="evenodd" clip-rule="evenodd" d="M210 111.515C210 112.343 210.672 113.015 211.5 113.015C212.328 113.015 213 112.343 213 111.515V111.379C213 110.55 212.328 109.879 211.5 109.879C210.672 109.879 210 110.55 210 111.379V111.515Z" fill="#0B131B"/>
<path fill-rule="evenodd" clip-rule="evenodd" d="M210 138.693C210 139.522 210.672 140.193 211.5 140.193C212.328 140.193 213 139.522 213 138.693V138.557C213 137.729 212.328 137.057 211.5 137.057C210.672 137.057 210 137.729 210 138.557V138.693Z" fill="#0B131B"/>
<path fill-rule="evenodd" clip-rule="evenodd" d="M210 165.871C210 166.7 210.672 167.371 211.5 167.371C212.328 167.371 213 166.7 213 165.871V165.735C213 164.907 212.328 164.235 211.5 164.235C210.672 164.235 210 164.907 210 165.735V165.871Z" fill="#0B131B"/>
<path fill-rule="evenodd" clip-rule="evenodd" d="M210 194.095C210 194.923 210.672 195.595 211.5 195.595C212.328 195.595 213 194.923 213 194.095V193.959C213 193.131 212.328 192.459 211.5 192.459C210.672 192.459 210 193.131 210 193.959V194.095Z" fill="#0B131B"/>
<path fill-rule="evenodd" clip-rule="evenodd" d="M210 221.273C210 222.101 210.672 222.773 211.5 222.773C212.328 222.773 213 222.101 213 221.273V221.137C213 220.309 212.328 219.637 211.5 219.637C210.672 219.637 210 220.309 210 221.137V221.273Z" fill="#0B131B"/>
<path fill-rule="evenodd" clip-rule="evenodd" d="M210 248.452C210 249.28 210.672 249.952 211.5 249.952C212.328 249.952 213 249.28 213 248.452V248.315C213 247.487 212.328 246.815 211.5 246.815C210.672 246.815 210 247.487 210 248.315V248.452Z" fill="#0B131B"/>
<path fill-rule="evenodd" clip-rule="evenodd" d="M210 276.675C210 277.503 210.672 278.175 211.5 278.175C212.328 278.175 213 277.503 213 276.675V276.539C213 275.711 212.328 275.039 211.5 275.039C210.672 275.039 210 275.711 210 276.539V276.675Z" fill="#0B131B"/>
<path fill-rule="evenodd" clip-rule="evenodd" d="M210 302.808C210 303.636 210.672 304.308 211.5 304.308C212.328 304.308 213 303.636 213 302.808V302.672C213 301.843 212.328 301.172 211.5 301.172C210.672 301.172 210 301.843 210 302.672V302.808Z" fill="#0B131B"/>
<path fill-rule="evenodd" clip-rule="evenodd" d="M210 331.032C210 331.86 210.672 332.532 211.5 332.532C212.328 332.532 213 331.86 213 331.032V330.896C213 330.067 212.328 329.396 211.5 329.396C210.672 329.396 210 330.067 210 330.896V331.032Z" fill="#0B131B"/>
<path fill-rule="evenodd" clip-rule="evenodd" d="M184 1.75671C184 2.58514 184.672 3.25671 185.5 3.25671C186.328 3.25671 187 2.58514 187 1.75671V1.62061C187 0.792178 186.328 0.120605 185.5 0.120605C184.672 0.120605 184 0.792178 184 1.62061V1.75671Z" fill="#0B131B"/>
<path fill-rule="evenodd" clip-rule="evenodd" d="M184 29.9801C184 30.8085 184.672 31.4801 185.5 31.4801C186.328 31.4801 187 30.8085 187 29.9801V29.8442C187 29.0158 186.328 28.3442 185.5 28.3442C184.672 28.3442 184 29.0158 184 29.8442V29.9801Z" fill="#0B131B"/>
<path fill-rule="evenodd" clip-rule="evenodd" d="M184 56.1129C184 56.9413 184.672 57.6129 185.5 57.6129C186.328 57.6129 187 56.9413 187 56.1129V55.9771C187 55.1486 186.328 54.4771 185.5 54.4771C184.672 54.4771 184 55.1486 184 55.9771V56.1129Z" fill="#0B131B"/>
<path fill-rule="evenodd" clip-rule="evenodd" d="M184 84.3369C184 85.1653 184.672 85.8369 185.5 85.8369C186.328 85.8369 187 85.1653 187 84.3369V84.2012C187 83.3727 186.328 82.7012 185.5 82.7012C184.672 82.7012 184 83.3727 184 84.2012V84.3369Z" fill="#0B131B"/>
<path fill-rule="evenodd" clip-rule="evenodd" d="M184 111.515C184 112.343 184.672 113.015 185.5 113.015C186.328 113.015 187 112.343 187 111.515V111.379C187 110.55 186.328 109.879 185.5 109.879C184.672 109.879 184 110.55 184 111.379V111.515Z" fill="#0B131B"/>
<path fill-rule="evenodd" clip-rule="evenodd" d="M184 138.693C184 139.522 184.672 140.193 185.5 140.193C186.328 140.193 187 139.522 187 138.693V138.557C187 137.729 186.328 137.057 185.5 137.057C184.672 137.057 184 137.729 184 138.557V138.693Z" fill="#0B131B"/>
<path fill-rule="evenodd" clip-rule="evenodd" d="M184 165.871C184 166.7 184.672 167.371 185.5 167.371C186.328 167.371 187 166.7 187 165.871V165.735C187 164.907 186.328 164.235 185.5 164.235C184.672 164.235 184 164.907 184 165.735V165.871Z" fill="#0B131B"/>
<path fill-rule="evenodd" clip-rule="evenodd" d="M184 194.095C184 194.923 184.672 195.595 185.5 195.595C186.328 195.595 187 194.923 187 194.095V193.959C187 193.131 186.328 192.459 185.5 192.459C184.672 192.459 184 193.131 184 193.959V194.095Z" fill="#0B131B"/>
<path fill-rule="evenodd" clip-rule="evenodd" d="M184 221.273C184 222.101 184.672 222.773 185.5 222.773C186.328 222.773 187 222.101 187 221.273V221.137C187 220.309 186.328 219.637 185.5 219.637C184.672 219.637 184 220.309 184 221.137V221.273Z" fill="#0B131B"/>
<path fill-rule="evenodd" clip-rule="evenodd" d="M184 248.452C184 249.28 184.672 249.952 185.5 249.952C186.328 249.952 187 249.28 187 248.452V248.315C187 247.487 186.328 246.815 185.5 246.815C184.672 246.815 184 247.487 184 248.315V248.452Z" fill="#0B131B"/>
<path fill-rule="evenodd" clip-rule="evenodd" d="M184 276.675C184 277.503 184.672 278.175 185.5 278.175C186.328 278.175 187 277.503 187 276.675V276.539C187 275.711 186.328 275.039 185.5 275.039C184.672 275.039 184 275.711 184 276.539V276.675Z" fill="#0B131B"/>
<path fill-rule="evenodd" clip-rule="evenodd" d="M184 302.808C184 303.636 184.672 304.308 185.5 304.308C186.328 304.308 187 303.636 187 302.808V302.672C187 301.843 186.328 301.172 185.5 301.172C184.672 301.172 184 301.843 184 302.672V302.808Z" fill="#0B131B"/>
<path fill-rule="evenodd" clip-rule="evenodd" d="M184 331.032C184 331.86 184.672 332.532 185.5 332.532C186.328 332.532 187 331.86 187 331.032V330.896C187 330.067 186.328 329.396 185.5 329.396C184.672 329.396 184 330.067 184 330.896V331.032Z" fill="#0B131B"/>
<path fill-rule="evenodd" clip-rule="evenodd" d="M157 1.75671C157 2.58514 157.672 3.25671 158.5 3.25671C159.328 3.25671 160 2.58514 160 1.75671V1.62061C160 0.792178 159.328 0.120605 158.5 0.120605C157.672 0.120605 157 0.792178 157 1.62061V1.75671Z" fill="#0B131B"/>
<path fill-rule="evenodd" clip-rule="evenodd" d="M157 29.9801C157 30.8085 157.672 31.4801 158.5 31.4801C159.328 31.4801 160 30.8085 160 29.9801V29.8442C160 29.0158 159.328 28.3442 158.5 28.3442C157.672 28.3442 157 29.0158 157 29.8442V29.9801Z" fill="#0B131B"/>
<path fill-rule="evenodd" clip-rule="evenodd" d="M157 56.1129C157 56.9413 157.672 57.6129 158.5 57.6129C159.328 57.6129 160 56.9413 160 56.1129V55.9771C160 55.1486 159.328 54.4771 158.5 54.4771C157.672 54.4771 157 55.1486 157 55.9771V56.1129Z" fill="#0B131B"/>
<path fill-rule="evenodd" clip-rule="evenodd" d="M157 84.3369C157 85.1653 157.672 85.8369 158.5 85.8369C159.328 85.8369 160 85.1653 160 84.3369V84.2012C160 83.3727 159.328 82.7012 158.5 82.7012C157.672 82.7012 157 83.3727 157 84.2012V84.3369Z" fill="#0B131B"/>
<path fill-rule="evenodd" clip-rule="evenodd" d="M157 111.515C157 112.343 157.672 113.015 158.5 113.015C159.328 113.015 160 112.343 160 111.515V111.379C160 110.55 159.328 109.879 158.5 109.879C157.672 109.879 157 110.55 157 111.379V111.515Z" fill="#0B131B"/>
<path fill-rule="evenodd" clip-rule="evenodd" d="M157 138.693C157 139.522 157.672 140.193 158.5 140.193C159.328 140.193 160 139.522 160 138.693V138.557C160 137.729 159.328 137.057 158.5 137.057C157.672 137.057 157 137.729 157 138.557V138.693Z" fill="#0B131B"/>
<path fill-rule="evenodd" clip-rule="evenodd" d="M157 165.871C157 166.7 157.672 167.371 158.5 167.371C159.328 167.371 160 166.7 160 165.871V165.735C160 164.907 159.328 164.235 158.5 164.235C157.672 164.235 157 164.907 157 165.735V165.871Z" fill="#0B131B"/>
<path fill-rule="evenodd" clip-rule="evenodd" d="M157 194.095C157 194.923 157.672 195.595 158.5 195.595C159.328 195.595 160 194.923 160 194.095V193.959C160 193.131 159.328 192.459 158.5 192.459C157.672 192.459 157 193.131 157 193.959V194.095Z" fill="#0B131B"/>
<path fill-rule="evenodd" clip-rule="evenodd" d="M157 221.273C157 222.101 157.672 222.773 158.5 222.773C159.328 222.773 160 222.101 160 221.273V221.137C160 220.309 159.328 219.637 158.5 219.637C157.672 219.637 157 220.309 157 221.137V221.273Z" fill="#0B131B"/>
<path fill-rule="evenodd" clip-rule="evenodd" d="M157 248.452C157 249.28 157.672 249.952 158.5 249.952C159.328 249.952 160 249.28 160 248.452V248.315C160 247.487 159.328 246.815 158.5 246.815C157.672 246.815 157 247.487 157 248.315V248.452Z" fill="#0B131B"/>
<path fill-rule="evenodd" clip-rule="evenodd" d="M157 276.675C157 277.503 157.672 278.175 158.5 278.175C159.328 278.175 160 277.503 160 276.675V276.539C160 275.711 159.328 275.039 158.5 275.039C157.672 275.039 157 275.711 157 276.539V276.675Z" fill="#0B131B"/>
<path fill-rule="evenodd" clip-rule="evenodd" d="M157 302.808C157 303.636 157.672 304.308 158.5 304.308C159.328 304.308 160 303.636 160 302.808V302.672C160 301.843 159.328 301.172 158.5 301.172C157.672 301.172 157 301.843 157 302.672V302.808Z" fill="#0B131B"/>
<path fill-rule="evenodd" clip-rule="evenodd" d="M157 331.032C157 331.86 157.672 332.532 158.5 332.532C159.328 332.532 160 331.86 160 331.032V330.896C160 330.067 159.328 329.396 158.5 329.396C157.672 329.396 157 330.067 157 330.896V331.032Z" fill="#0B131B"/>
<path fill-rule="evenodd" clip-rule="evenodd" d="M131 1.75671C131 2.58514 131.672 3.25671 132.5 3.25671C133.328 3.25671 134 2.58514 134 1.75671V1.62061C134 0.792178 133.328 0.120605 132.5 0.120605C131.672 0.120605 131 0.792178 131 1.62061V1.75671Z" fill="#0B131B"/>
<path fill-rule="evenodd" clip-rule="evenodd" d="M131 29.9801C131 30.8085 131.672 31.4801 132.5 31.4801C133.328 31.4801 134 30.8085 134 29.9801V29.8442C134 29.0158 133.328 28.3442 132.5 28.3442C131.672 28.3442 131 29.0158 131 29.8442V29.9801Z" fill="#0B131B"/>
<path fill-rule="evenodd" clip-rule="evenodd" d="M131 56.1129C131 56.9413 131.672 57.6129 132.5 57.6129C133.328 57.6129 134 56.9413 134 56.1129V55.9771C134 55.1486 133.328 54.4771 132.5 54.4771C131.672 54.4771 131 55.1486 131 55.9771V56.1129Z" fill="#0B131B"/>
<path fill-rule="evenodd" clip-rule="evenodd" d="M131 84.3369C131 85.1653 131.672 85.8369 132.5 85.8369C133.328 85.8369 134 85.1653 134 84.3369V84.2012C134 83.3727 133.328 82.7012 132.5 82.7012C131.672 82.7012 131 83.3727 131 84.2012V84.3369Z" fill="#0B131B"/>
<path fill-rule="evenodd" clip-rule="evenodd" d="M131 111.515C131 112.343 131.672 113.015 132.5 113.015C133.328 113.015 134 112.343 134 111.515V111.379C134 110.55 133.328 109.879 132.5 109.879C131.672 109.879 131 110.55 131 111.379V111.515Z" fill="#0B131B"/>
<path fill-rule="evenodd" clip-rule="evenodd" d="M131 138.693C131 139.522 131.672 140.193 132.5 140.193C133.328 140.193 134 139.522 134 138.693V138.557C134 137.729 133.328 137.057 132.5 137.057C131.672 137.057 131 137.729 131 138.557V138.693Z" fill="#0B131B"/>
<path fill-rule="evenodd" clip-rule="evenodd" d="M131 165.871C131 166.7 131.672 167.371 132.5 167.371C133.328 167.371 134 166.7 134 165.871V165.735C134 164.907 133.328 164.235 132.5 164.235C131.672 164.235 131 164.907 131 165.735V165.871Z" fill="#0B131B"/>
<path fill-rule="evenodd" clip-rule="evenodd" d="M131 194.095C131 194.923 131.672 195.595 132.5 195.595C133.328 195.595 134 194.923 134 194.095V193.959C134 193.131 133.328 192.459 132.5 192.459C131.672 192.459 131 193.131 131 193.959V194.095Z" fill="#0B131B"/>
<path fill-rule="evenodd" clip-rule="evenodd" d="M131 221.273C131 222.101 131.672 222.773 132.5 222.773C133.328 222.773 134 222.101 134 221.273V221.137C134 220.309 133.328 219.637 132.5 219.637C131.672 219.637 131 220.309 131 221.137V221.273Z" fill="#0B131B"/>
<path fill-rule="evenodd" clip-rule="evenodd" d="M131 248.452C131 249.28 131.672 249.952 132.5 249.952C133.328 249.952 134 249.28 134 248.452V248.315C134 247.487 133.328 246.815 132.5 246.815C131.672 246.815 131 247.487 131 248.315V248.452Z" fill="#0B131B"/>
<path fill-rule="evenodd" clip-rule="evenodd" d="M131 276.675C131 277.503 131.672 278.175 132.5 278.175C133.328 278.175 134 277.503 134 276.675V276.539C134 275.711 133.328 275.039 132.5 275.039C131.672 275.039 131 275.711 131 276.539V276.675Z" fill="#0B131B"/>
<path fill-rule="evenodd" clip-rule="evenodd" d="M131 302.808C131 303.636 131.672 304.308 132.5 304.308C133.328 304.308 134 303.636 134 302.808V302.672C134 301.843 133.328 301.172 132.5 301.172C131.672 301.172 131 301.843 131 302.672V302.808Z" fill="#0B131B"/>
<path fill-rule="evenodd" clip-rule="evenodd" d="M131 331.032C131 331.86 131.672 332.532 132.5 332.532C133.328 332.532 134 331.86 134 331.032V330.896C134 330.067 133.328 329.396 132.5 329.396C131.672 329.396 131 330.067 131 330.896V331.032Z" fill="#0B131B"/>
<path fill-rule="evenodd" clip-rule="evenodd" d="M105 1.75671C105 2.58514 105.672 3.25671 106.5 3.25671C107.328 3.25671 108 2.58514 108 1.75671V1.62061C108 0.792178 107.328 0.120605 106.5 0.120605C105.672 0.120605 105 0.792178 105 1.62061V1.75671Z" fill="#0B131B"/>
<path fill-rule="evenodd" clip-rule="evenodd" d="M105 29.9801C105 30.8085 105.672 31.4801 106.5 31.4801C107.328 31.4801 108 30.8085 108 29.9801V29.8442C108 29.0158 107.328 28.3442 106.5 28.3442C105.672 28.3442 105 29.0158 105 29.8442V29.9801Z" fill="#0B131B"/>
<path fill-rule="evenodd" clip-rule="evenodd" d="M105 56.1129C105 56.9413 105.672 57.6129 106.5 57.6129C107.328 57.6129 108 56.9413 108 56.1129V55.9771C108 55.1486 107.328 54.4771 106.5 54.4771C105.672 54.4771 105 55.1486 105 55.9771V56.1129Z" fill="#0B131B"/>
<path fill-rule="evenodd" clip-rule="evenodd" d="M105 84.3369C105 85.1653 105.672 85.8369 106.5 85.8369C107.328 85.8369 108 85.1653 108 84.3369V84.2012C108 83.3727 107.328 82.7012 106.5 82.7012C105.672 82.7012 105 83.3727 105 84.2012V84.3369Z" fill="#0B131B"/>
<path fill-rule="evenodd" clip-rule="evenodd" d="M105 111.515C105 112.343 105.672 113.015 106.5 113.015C107.328 113.015 108 112.343 108 111.515V111.379C108 110.55 107.328 109.879 106.5 109.879C105.672 109.879 105 110.55 105 111.379V111.515Z" fill="#0B131B"/>
<path fill-rule="evenodd" clip-rule="evenodd" d="M105 138.693C105 139.522 105.672 140.193 106.5 140.193C107.328 140.193 108 139.522 108 138.693V138.557C108 137.729 107.328 137.057 106.5 137.057C105.672 137.057 105 137.729 105 138.557V138.693Z" fill="#0B131B"/>
<path fill-rule="evenodd" clip-rule="evenodd" d="M105 165.871C105 166.7 105.672 167.371 106.5 167.371C107.328 167.371 108 166.7 108 165.871V165.735C108 164.907 107.328 164.235 106.5 164.235C105.672 164.235 105 164.907 105 165.735V165.871Z" fill="#0B131B"/>
<path fill-rule="evenodd" clip-rule="evenodd" d="M105 194.095C105 194.923 105.672 195.595 106.5 195.595C107.328 195.595 108 194.923 108 194.095V193.959C108 193.131 107.328 192.459 106.5 192.459C105.672 192.459 105 193.131 105 193.959V194.095Z" fill="#0B131B"/>
<path fill-rule="evenodd" clip-rule="evenodd" d="M105 221.273C105 222.101 105.672 222.773 106.5 222.773C107.328 222.773 108 222.101 108 221.273V221.137C108 220.309 107.328 219.637 106.5 219.637C105.672 219.637 105 220.309 105 221.137V221.273Z" fill="#0B131B"/>
<path fill-rule="evenodd" clip-rule="evenodd" d="M105 248.452C105 249.28 105.672 249.952 106.5 249.952C107.328 249.952 108 249.28 108 248.452V248.315C108 247.487 107.328 246.815 106.5 246.815C105.672 246.815 105 247.487 105 248.315V248.452Z" fill="#0B131B"/>
<path fill-rule="evenodd" clip-rule="evenodd" d="M105 276.675C105 277.503 105.672 278.175 106.5 278.175C107.328 278.175 108 277.503 108 276.675V276.539C108 275.711 107.328 275.039 106.5 275.039C105.672 275.039 105 275.711 105 276.539V276.675Z" fill="#0B131B"/>
<path fill-rule="evenodd" clip-rule="evenodd" d="M105 302.808C105 303.636 105.672 304.308 106.5 304.308C107.328 304.308 108 303.636 108 302.808V302.672C108 301.843 107.328 301.172 106.5 301.172C105.672 301.172 105 301.843 105 302.672V302.808Z" fill="#0B131B"/>
<path fill-rule="evenodd" clip-rule="evenodd" d="M105 331.032C105 331.86 105.672 332.532 106.5 332.532C107.328 332.532 108 331.86 108 331.032V330.896C108 330.067 107.328 329.396 106.5 329.396C105.672 329.396 105 330.067 105 330.896V331.032Z" fill="#0B131B"/>
<path fill-rule="evenodd" clip-rule="evenodd" d="M79 1.75671C79 2.58514 79.6716 3.25671 80.5 3.25671C81.3284 3.25671 82 2.58514 82 1.75671V1.62061C82 0.792178 81.3284 0.120605 80.5 0.120605C79.6716 0.120605 79 0.792178 79 1.62061V1.75671Z" fill="#0B131B"/>
<path fill-rule="evenodd" clip-rule="evenodd" d="M79 29.9801C79 30.8085 79.6716 31.4801 80.5 31.4801C81.3284 31.4801 82 30.8085 82 29.9801V29.8442C82 29.0158 81.3284 28.3442 80.5 28.3442C79.6716 28.3442 79 29.0158 79 29.8442V29.9801Z" fill="#0B131B"/>
<path fill-rule="evenodd" clip-rule="evenodd" d="M79 56.1129C79 56.9413 79.6716 57.6129 80.5 57.6129C81.3284 57.6129 82 56.9413 82 56.1129V55.9771C82 55.1486 81.3284 54.4771 80.5 54.4771C79.6716 54.4771 79 55.1486 79 55.9771V56.1129Z" fill="#0B131B"/>
<path fill-rule="evenodd" clip-rule="evenodd" d="M79 84.3369C79 85.1653 79.6716 85.8369 80.5 85.8369C81.3284 85.8369 82 85.1653 82 84.3369V84.2012C82 83.3727 81.3284 82.7012 80.5 82.7012C79.6716 82.7012 79 83.3727 79 84.2012V84.3369Z" fill="#0B131B"/>
<path fill-rule="evenodd" clip-rule="evenodd" d="M79 111.515C79 112.343 79.6716 113.015 80.5 113.015C81.3284 113.015 82 112.343 82 111.515V111.379C82 110.55 81.3284 109.879 80.5 109.879C79.6716 109.879 79 110.55 79 111.379V111.515Z" fill="#0B131B"/>
<path fill-rule="evenodd" clip-rule="evenodd" d="M79 138.693C79 139.522 79.6716 140.193 80.5 140.193C81.3284 140.193 82 139.522 82 138.693V138.557C82 137.729 81.3284 137.057 80.5 137.057C79.6716 137.057 79 137.729 79 138.557V138.693Z" fill="#0B131B"/>
<path fill-rule="evenodd" clip-rule="evenodd" d="M79 165.871C79 166.7 79.6716 167.371 80.5 167.371C81.3284 167.371 82 166.7 82 165.871V165.735C82 164.907 81.3284 164.235 80.5 164.235C79.6716 164.235 79 164.907 79 165.735V165.871Z" fill="#0B131B"/>
<path fill-rule="evenodd" clip-rule="evenodd" d="M79 194.095C79 194.923 79.6716 195.595 80.5 195.595C81.3284 195.595 82 194.923 82 194.095V193.959C82 193.131 81.3284 192.459 80.5 192.459C79.6716 192.459 79 193.131 79 193.959V194.095Z" fill="#0B131B"/>
<path fill-rule="evenodd" clip-rule="evenodd" d="M79 221.273C79 222.101 79.6716 222.773 80.5 222.773C81.3284 222.773 82 222.101 82 221.273V221.137C82 220.309 81.3284 219.637 80.5 219.637C79.6716 219.637 79 220.309 79 221.137V221.273Z" fill="#0B131B"/>
<path fill-rule="evenodd" clip-rule="evenodd" d="M79 248.452C79 249.28 79.6716 249.952 80.5 249.952C81.3284 249.952 82 249.28 82 248.452V248.315C82 247.487 81.3284 246.815 80.5 246.815C79.6716 246.815 79 247.487 79 248.315V248.452Z" fill="#0B131B"/>
<path fill-rule="evenodd" clip-rule="evenodd" d="M79 276.675C79 277.503 79.6716 278.175 80.5 278.175C81.3284 278.175 82 277.503 82 276.675V276.539C82 275.711 81.3284 275.039 80.5 275.039C79.6716 275.039 79 275.711 79 276.539V276.675Z" fill="#0B131B"/>
<path fill-rule="evenodd" clip-rule="evenodd" d="M79 302.808C79 303.636 79.6716 304.308 80.5 304.308C81.3284 304.308 82 303.636 82 302.808V302.672C82 301.843 81.3284 301.172 80.5 301.172C79.6716 301.172 79 301.843 79 302.672V302.808Z" fill="#0B131B"/>
<path fill-rule="evenodd" clip-rule="evenodd" d="M79 331.032C79 331.86 79.6716 332.532 80.5 332.532C81.3284 332.532 82 331.86 82 331.032V330.896C82 330.067 81.3284 329.396 80.5 329.396C79.6716 329.396 79 330.067 79 330.896V331.032Z" fill="#0B131B"/>
<path fill-rule="evenodd" clip-rule="evenodd" d="M52 1.75671C52 2.58514 52.6716 3.25671 53.5 3.25671C54.3284 3.25671 55 2.58514 55 1.75671V1.62061C55 0.792178 54.3284 0.120605 53.5 0.120605C52.6716 0.120605 52 0.792178 52 1.62061V1.75671Z" fill="#0B131B"/>
<path fill-rule="evenodd" clip-rule="evenodd" d="M52 29.9801C52 30.8085 52.6716 31.4801 53.5 31.4801C54.3284 31.4801 55 30.8085 55 29.9801V29.8442C55 29.0158 54.3284 28.3442 53.5 28.3442C52.6716 28.3442 52 29.0158 52 29.8442V29.9801Z" fill="#0B131B"/>
<path fill-rule="evenodd" clip-rule="evenodd" d="M52 56.1129C52 56.9413 52.6716 57.6129 53.5 57.6129C54.3284 57.6129 55 56.9413 55 56.1129V55.9771C55 55.1486 54.3284 54.4771 53.5 54.4771C52.6716 54.4771 52 55.1486 52 55.9771V56.1129Z" fill="#0B131B"/>
<path fill-rule="evenodd" clip-rule="evenodd" d="M52 84.3369C52 85.1653 52.6716 85.8369 53.5 85.8369C54.3284 85.8369 55 85.1653 55 84.3369V84.2012C55 83.3727 54.3284 82.7012 53.5 82.7012C52.6716 82.7012 52 83.3727 52 84.2012V84.3369Z" fill="#0B131B"/>
<path fill-rule="evenodd" clip-rule="evenodd" d="M52 111.515C52 112.343 52.6716 113.015 53.5 113.015C54.3284 113.015 55 112.343 55 111.515V111.379C55 110.55 54.3284 109.879 53.5 109.879C52.6716 109.879 52 110.55 52 111.379V111.515Z" fill="#0B131B"/>
<path fill-rule="evenodd" clip-rule="evenodd" d="M52 138.693C52 139.522 52.6716 140.193 53.5 140.193C54.3284 140.193 55 139.522 55 138.693V138.557C55 137.729 54.3284 137.057 53.5 137.057C52.6716 137.057 52 137.729 52 138.557V138.693Z" fill="#0B131B"/>
<path fill-rule="evenodd" clip-rule="evenodd" d="M52 165.871C52 166.7 52.6716 167.371 53.5 167.371C54.3284 167.371 55 166.7 55 165.871V165.735C55 164.907 54.3284 164.235 53.5 164.235C52.6716 164.235 52 164.907 52 165.735V165.871Z" fill="#0B131B"/>
<path fill-rule="evenodd" clip-rule="evenodd" d="M52 194.095C52 194.923 52.6716 195.595 53.5 195.595C54.3284 195.595 55 194.923 55 194.095V193.959C55 193.131 54.3284 192.459 53.5 192.459C52.6716 192.459 52 193.131 52 193.959V194.095Z" fill="#0B131B"/>
<path fill-rule="evenodd" clip-rule="evenodd" d="M52 221.273C52 222.101 52.6716 222.773 53.5 222.773C54.3284 222.773 55 222.101 55 221.273V221.137C55 220.309 54.3284 219.637 53.5 219.637C52.6716 219.637 52 220.309 52 221.137V221.273Z" fill="#0B131B"/>
<path fill-rule="evenodd" clip-rule="evenodd" d="M52 248.452C52 249.28 52.6716 249.952 53.5 249.952C54.3284 249.952 55 249.28 55 248.452V248.315C55 247.487 54.3284 246.815 53.5 246.815C52.6716 246.815 52 247.487 52 248.315V248.452Z" fill="#0B131B"/>
<path fill-rule="evenodd" clip-rule="evenodd" d="M52 276.675C52 277.503 52.6716 278.175 53.5 278.175C54.3284 278.175 55 277.503 55 276.675V276.539C55 275.711 54.3284 275.039 53.5 275.039C52.6716 275.039 52 275.711 52 276.539V276.675Z" fill="#0B131B"/>
<path fill-rule="evenodd" clip-rule="evenodd" d="M52 302.808C52 303.636 52.6716 304.308 53.5 304.308C54.3284 304.308 55 303.636 55 302.808V302.672C55 301.843 54.3284 301.172 53.5 301.172C52.6716 301.172 52 301.843 52 302.672V302.808Z" fill="#0B131B"/>
<path fill-rule="evenodd" clip-rule="evenodd" d="M52 331.032C52 331.86 52.6716 332.532 53.5 332.532C54.3284 332.532 55 331.86 55 331.032V330.896C55 330.067 54.3284 329.396 53.5 329.396C52.6716 329.396 52 330.067 52 330.896V331.032Z" fill="#0B131B"/>
<path fill-rule="evenodd" clip-rule="evenodd" d="M27 1.75671C27 2.58514 27.6716 3.25671 28.5 3.25671C29.3284 3.25671 30 2.58514 30 1.75671V1.62061C30 0.792178 29.3284 0.120605 28.5 0.120605C27.6716 0.120605 27 0.792178 27 1.62061V1.75671Z" fill="#0B131B"/>
<path fill-rule="evenodd" clip-rule="evenodd" d="M27 29.9801C27 30.8085 27.6716 31.4801 28.5 31.4801C29.3284 31.4801 30 30.8085 30 29.9801V29.8442C30 29.0158 29.3284 28.3442 28.5 28.3442C27.6716 28.3442 27 29.0158 27 29.8442V29.9801Z" fill="#0B131B"/>
<path fill-rule="evenodd" clip-rule="evenodd" d="M27 56.1129C27 56.9413 27.6716 57.6129 28.5 57.6129C29.3284 57.6129 30 56.9413 30 56.1129V55.9771C30 55.1486 29.3284 54.4771 28.5 54.4771C27.6716 54.4771 27 55.1486 27 55.9771V56.1129Z" fill="#0B131B"/>
<path fill-rule="evenodd" clip-rule="evenodd" d="M27 84.3369C27 85.1653 27.6716 85.8369 28.5 85.8369C29.3284 85.8369 30 85.1653 30 84.3369V84.2012C30 83.3727 29.3284 82.7012 28.5 82.7012C27.6716 82.7012 27 83.3727 27 84.2012V84.3369Z" fill="#0B131B"/>
<path fill-rule="evenodd" clip-rule="evenodd" d="M27 111.515C27 112.343 27.6716 113.015 28.5 113.015C29.3284 113.015 30 112.343 30 111.515V111.379C30 110.55 29.3284 109.879 28.5 109.879C27.6716 109.879 27 110.55 27 111.379V111.515Z" fill="#0B131B"/>
<path fill-rule="evenodd" clip-rule="evenodd" d="M27 138.693C27 139.522 27.6716 140.193 28.5 140.193C29.3284 140.193 30 139.522 30 138.693V138.557C30 137.729 29.3284 137.057 28.5 137.057C27.6716 137.057 27 137.729 27 138.557V138.693Z" fill="#0B131B"/>
<path fill-rule="evenodd" clip-rule="evenodd" d="M27 165.871C27 166.7 27.6716 167.371 28.5 167.371C29.3284 167.371 30 166.7 30 165.871V165.735C30 164.907 29.3284 164.235 28.5 164.235C27.6716 164.235 27 164.907 27 165.735V165.871Z" fill="#0B131B"/>
<path fill-rule="evenodd" clip-rule="evenodd" d="M27 194.095C27 194.923 27.6716 195.595 28.5 195.595C29.3284 195.595 30 194.923 30 194.095V193.959C30 193.131 29.3284 192.459 28.5 192.459C27.6716 192.459 27 193.131 27 193.959V194.095Z" fill="#0B131B"/>
<path fill-rule="evenodd" clip-rule="evenodd" d="M27 221.273C27 222.101 27.6716 222.773 28.5 222.773C29.3284 222.773 30 222.101 30 221.273V221.137C30 220.309 29.3284 219.637 28.5 219.637C27.6716 219.637 27 220.309 27 221.137V221.273Z" fill="#0B131B"/>
<path fill-rule="evenodd" clip-rule="evenodd" d="M27 248.452C27 249.28 27.6716 249.952 28.5 249.952C29.3284 249.952 30 249.28 30 248.452V248.315C30 247.487 29.3284 246.815 28.5 246.815C27.6716 246.815 27 247.487 27 248.315V248.452Z" fill="#0B131B"/>
<path fill-rule="evenodd" clip-rule="evenodd" d="M27 276.675C27 277.503 27.6716 278.175 28.5 278.175C29.3284 278.175 30 277.503 30 276.675V276.539C30 275.711 29.3284 275.039 28.5 275.039C27.6716 275.039 27 275.711 27 276.539V276.675Z" fill="#0B131B"/>
<path fill-rule="evenodd" clip-rule="evenodd" d="M27 302.808C27 303.636 27.6716 304.308 28.5 304.308C29.3284 304.308 30 303.636 30 302.808V302.672C30 301.843 29.3284 301.172 28.5 301.172C27.6716 301.172 27 301.843 27 302.672V302.808Z" fill="#0B131B"/>
<path fill-rule="evenodd" clip-rule="evenodd" d="M27 331.032C27 331.86 27.6716 332.532 28.5 332.532C29.3284 332.532 30 331.86 30 331.032V330.896C30 330.067 29.3284 329.396 28.5 329.396C27.6716 329.396 27 330.067 27 330.896V331.032Z" fill="#0B131B"/>
<path fill-rule="evenodd" clip-rule="evenodd" d="M0 1.75671C0 2.58514 0.671573 3.25671 1.5 3.25671C2.32843 3.25671 3 2.58514 3 1.75671V1.62061C3 0.792178 2.32843 0.120605 1.5 0.120605C0.671573 0.120605 0 0.792178 0 1.62061V1.75671Z" fill="#0B131B"/>
<path fill-rule="evenodd" clip-rule="evenodd" d="M0 29.9801C0 30.8085 0.671573 31.4801 1.5 31.4801C2.32843 31.4801 3 30.8085 3 29.9801V29.8442C3 29.0158 2.32843 28.3442 1.5 28.3442C0.671573 28.3442 0 29.0158 0 29.8442V29.9801Z" fill="#0B131B"/>
<path fill-rule="evenodd" clip-rule="evenodd" d="M0 56.1129C0 56.9413 0.671573 57.6129 1.5 57.6129C2.32843 57.6129 3 56.9413 3 56.1129V55.9771C3 55.1486 2.32843 54.4771 1.5 54.4771C0.671573 54.4771 0 55.1486 0 55.9771V56.1129Z" fill="#0B131B"/>
<path fill-rule="evenodd" clip-rule="evenodd" d="M0 84.3369C0 85.1653 0.671573 85.8369 1.5 85.8369C2.32843 85.8369 3 85.1653 3 84.3369V84.2012C3 83.3727 2.32843 82.7012 1.5 82.7012C0.671573 82.7012 0 83.3727 0 84.2012V84.3369Z" fill="#0B131B"/>
<path fill-rule="evenodd" clip-rule="evenodd" d="M0 111.515C0 112.343 0.671573 113.015 1.5 113.015C2.32843 113.015 3 112.343 3 111.515V111.379C3 110.55 2.32843 109.879 1.5 109.879C0.671573 109.879 0 110.55 0 111.379V111.515Z" fill="#0B131B"/>
<path fill-rule="evenodd" clip-rule="evenodd" d="M0 138.693C0 139.522 0.671573 140.193 1.5 140.193C2.32843 140.193 3 139.522 3 138.693V138.557C3 137.729 2.32843 137.057 1.5 137.057C0.671573 137.057 0 137.729 0 138.557V138.693Z" fill="#0B131B"/>
<path fill-rule="evenodd" clip-rule="evenodd" d="M0 165.871C0 166.7 0.671573 167.371 1.5 167.371C2.32843 167.371 3 166.7 3 165.871V165.735C3 164.907 2.32843 164.235 1.5 164.235C0.671573 164.235 0 164.907 0 165.735V165.871Z" fill="#0B131B"/>
<path fill-rule="evenodd" clip-rule="evenodd" d="M0 194.095C0 194.923 0.671573 195.595 1.5 195.595C2.32843 195.595 3 194.923 3 194.095V193.959C3 193.131 2.32843 192.459 1.5 192.459C0.671573 192.459 0 193.131 0 193.959V194.095Z" fill="#0B131B"/>
<path fill-rule="evenodd" clip-rule="evenodd" d="M0 221.273C0 222.101 0.671573 222.773 1.5 222.773C2.32843 222.773 3 222.101 3 221.273V221.137C3 220.309 2.32843 219.637 1.5 219.637C0.671573 219.637 0 220.309 0 221.137V221.273Z" fill="#0B131B"/>
<path fill-rule="evenodd" clip-rule="evenodd" d="M0 248.452C0 249.28 0.671573 249.952 1.5 249.952C2.32843 249.952 3 249.28 3 248.452V248.315C3 247.487 2.32843 246.815 1.5 246.815C0.671573 246.815 0 247.487 0 248.315V248.452Z" fill="#0B131B"/>
<path fill-rule="evenodd" clip-rule="evenodd" d="M0 276.675C0 277.503 0.671573 278.175 1.5 278.175C2.32843 278.175 3 277.503 3 276.675V276.539C3 275.711 2.32843 275.039 1.5 275.039C0.671573 275.039 0 275.711 0 276.539V276.675Z" fill="#0B131B"/>
<path fill-rule="evenodd" clip-rule="evenodd" d="M0 302.808C0 303.636 0.671573 304.308 1.5 304.308C2.32843 304.308 3 303.636 3 302.808V302.672C3 301.843 2.32843 301.172 1.5 301.172C0.671573 301.172 0 301.843 0 302.672V302.808Z" fill="#0B131B"/>
<path fill-rule="evenodd" clip-rule="evenodd" d="M0 331.032C0 331.86 0.671573 332.532 1.5 332.532C2.32843 332.532 3 331.86 3 331.032V330.896C3 330.067 2.32843 329.396 1.5 329.396C0.671573 329.396 0 330.067 0 330.896V331.032Z" fill="#0B131B"/>
</g>
</svg>
